<?xml version="1.0" encoding="UTF-8"?><svg xmlns="http://www.w3.org/2000/svg" xmlns:xlink="http://www.w3.org/1999/xlink" height="476.4" preserveAspectRatio="xMidYMid meet" version="1.0" viewBox="-0.7 -2.2 342.5 476.4" width="342.5" zoomAndPan="magnify"><g id="change1_1"><path d="M329.949,425.744c-8.652,7.7-18.986,11.336-28.329,9.97c-16.783-2.503-32.791-16.189-42.822-36.61 c-2.913-5.853-5.401-12.01-7.809-17.965c-0.991-2.452-1.982-4.905-3.004-7.344c-0.692-2.138-1.71-4.262-2.693-6.316 c-1.003-2.096-2.039-4.259-2.757-6.464c-5.489,1.646-11.358,3.543-18.939,6.119c-1.821,0.611-3.637,1.235-5.45,1.859 c-7.94,2.732-16.146,5.557-24.551,7.065c0.651,1.681,1.292,3.444,1.863,5.02c1.055,2.904,1.965,5.413,2.57,6.428l1.417,3.657 c2.408,6.263,4.899,12.74,7.707,18.955c0.23,0.53,0.323,1.068,0.276,1.585c0.381,0.083,0.688,0.133,0.949,0.154 c15.335,4.322,25.958,21.044,23.774,37.291c-2.085,15.548-18.382,22.247-33.776,22.247c-1.089,0-2.171-0.033-3.245-0.1 c-4.754,0.417-29.383-6.562-30.577-13.22c-22.627-29.001-39.83-64.525-52.585-108.588c-4.772,0.51-9.546,0.414-14.191-0.283 c-45.988-8.207-46.312-80.911-46.434-108.281c0.063-1.979,0.118-3.948,0.172-5.925c0.462-16.845,0.941-34.264,7.171-50.123 c2.354-4.889,6.071-9.09,10.549-11.962c-10.876-3.482-20.317-8.756-28.082-15.688c-5.77,1.345-11.652,1.087-17.034-0.75 c-16.34-4.793-22.999-22.272-23.775-37.029c-1.086-12.994-0.299-26.073,12.713-33.623c1.643-1.29,5.886-4.075,10.152-5.986 c1.92-6.244,4.516-12.581,7.716-18.84c9.11-19.342,23.102-35.497,40.455-46.704c0.595-0.342,1.416-0.862,2.404-1.488 c7.335-4.643,15.341-9.305,18.065-6.323c26.964-8.727,50.781-8.644,70.798,0.247c16.797,7.273,31.709,19.06,43.133,34.091 c23.573,4.873,29.969,18.275,33.502,41.271c3.057,11.531,0.359,26.203-12.81,31.045l-0.111,0.027 c-0.774,0.096-1.803,0.391-2.891,0.704c-0.771,0.221-1.565,0.449-2.365,0.637c-2.273,5.33-5.288,10.517-8.967,15.431 c8.381,2.342,15.896,7.815,21.549,12.366c21.685,17.947,39.601,40.419,51.817,64.991c0.694,1.649,1.495,3.492,2.374,5.516 c7.815,17.994,20.897,48.111,13.842,65.632c-2.041,5.067-5.686,8.727-10.834,10.876c-0.809,0.225-2.004,0.681-3.388,1.21 c-1.309,0.5-2.776,1.062-4.291,1.575c1.456,4.917,3.316,9.804,5.117,14.535c0.902,2.373,1.836,4.826,2.707,7.252 c3.172,8.564,6.277,17.317,9.281,25.782c2.95,8.312,6,16.909,9.111,25.322l0.342,0.933c5.794,1.405,11.493,4.807,16.944,10.113 c2.985,2.062,5.389,4.649,5.951,6.415c0.198,0.33,0.39,0.664,0.58,1.002c0.513,0.661,1.051,1.384,1.569,2.107 c0.56,0.721,0.784,1.544,0.646,2.38C340.315,399.278,341.768,415.918,329.949,425.744z" fill="#C5CCE9"/></g><g id="change2_1"><path d="M145.015,394.441c-4.842,1.679-8.597,2.85-12.166,3.794c-0.569,0.385-1.221,0.58-1.86,0.58 c-0.516,0-1.023-0.128-1.473-0.386l-0.087-0.063c-1.434-1.303-2-2.471-1.729-3.572c0.541-2.203,4.417-3.218,7.532-4.033 c1.061-0.277,2.063-0.54,2.703-0.796c4.115-1.334,8.222-2.818,12.193-4.253c4.405-1.592,8.959-3.238,13.51-4.674 c8.152-2.524,15.186-5.019,21.504-7.626c0.877-0.21,1.857-0.649,2.895-1.115c2.964-1.329,6.65-2.982,8.342,0.619 c0.879,3.272-2.085,4.17-4.25,4.824c-0.482,0.146-0.947,0.286-1.353,0.443c-1.621,0.622-3.235,1.262-4.849,1.901 c-3.612,1.432-7.348,2.912-11.105,4.166l-0.009,0.003C166.073,386.983,156.605,390.22,145.015,394.441z M193.386,398.166 c-0.742,0.354-1.443,0.689-2.051,0.867l-0.04,0.014c-4.885,1.894-9.827,3.884-14.606,5.808c-9.611,3.868-19.549,7.869-29.574,11.324 c-0.841,0.451-2.187,0.717-3.611,0.998c-2.539,0.502-5.164,1.021-6.106,2.753c-0.461,0.849-0.45,1.896,0.077,3.194 c0.625,0.987,1.75,1.364,3.151,1.364c2.584,0,6.105-1.283,9.144-2.391c1.594-0.581,2.971-1.083,3.948-1.289 c16.357-6.283,31.05-12.1,44.92-17.782c0.757-0.31,1.35-0.922,1.669-1.727c0.336-0.846,0.322-1.787-0.056-2.614 C198.622,395.668,195.596,397.112,193.386,398.166z M260.301,357.375c1.237-0.59,2.404-1.148,3.497-1.38l0.067-0.02 c11.058-4.023,22.097-7.502,32.772-10.331c1.763-0.317,2.95-2,2.641-3.778c-0.216-0.945-0.725-1.639-1.511-2.061 c-2.602-1.39-7.667,0.531-12.136,2.229c-2.124,0.806-4.129,1.567-5.323,1.701c-7.533,1.979-14.921,4.753-22.065,7.436 c-1.389,0.521-2.777,1.043-4.167,1.559c-1.193,0.161-2.165,1.025-2.544,2.269c-0.383,1.256-0.043,2.528,0.949,3.365 c0.807,0.5,1.646,0.698,2.497,0.698C256.77,359.061,258.611,358.181,260.301,357.375z M307.651,361.215l-0.02-0.028 c-1.917-2.663-4.625-1.126-6.803,0.111c-0.778,0.442-1.513,0.86-2.232,1.109c-8.109,4.143-17.049,7.542-27.328,10.394 c-4.009,1.115-7.894,2.729-11.692,4.305c-0.468,0.195-1.04,0.365-1.646,0.545c-2.254,0.668-5.34,1.582-4.489,4.901 c0.381,0.926,0.998,1.56,1.832,1.885c0.453,0.176,0.951,0.254,1.48,0.254c2.104,0,4.716-1.223,7.076-2.327 c1.402-0.655,2.726-1.274,3.688-1.488c2.325-0.763,4.663-1.495,7-2.228c8.341-2.613,16.965-5.316,24.924-9.418 c0.984-0.49,1.973-0.974,2.962-1.458c1.394-0.681,2.787-1.362,4.22-2.096C308.143,364.634,308.585,362.716,307.651,361.215z M260.387,299.28c-0.277-0.598-0.539-1.16-0.766-1.676l-0.038-0.07c-0.375-0.58-0.66-1.384-0.963-2.235 c-0.568-1.599-1.155-3.252-2.5-3.877c-0.725-0.337-1.593-0.321-2.641,0.077c-3.346,1.817-1.143,6.327,0.987,10.688 c1.251,2.562,2.542,5.207,2.548,7.036c-17.472,8.023-35.019,14.539-52.202,19.381c-8.217,3.216-17.531,6.86-27.096,8.383 c-2.16,0.342-2.745-1.739-3.432-5.199c-0.58-2.918-1.235-6.224-4.189-6.224c-0.021,0-0.042,0-0.064,0.001 c-1.161,0.096-2.008,0.553-2.519,1.357c-1.015,1.602-0.396,4.161,0.293,5.998c0.133,0.436,0.263,0.887,0.395,1.346 c1.003,3.484,2.14,7.434,5.921,8.832l0.124,0.028c0.933,0.093,1.86,0.137,2.788,0.137c7.446,0,14.754-2.81,21.845-5.537 c2.188-0.842,4.451-1.712,6.611-2.453c19.96-5.854,37.772-12.474,54.462-20.242C266.277,311.947,262.733,304.324,260.387,299.28z M122.98,336.588c-1.633-4.247-2.945-8.585-3.899-12.893c-3.133-15.556-6.113-32.107-5.175-48.435 c0.958-1.677,0.513-3.192-0.237-4.062c-0.885-1.026-2.303-1.37-3.525-0.86c-1.098,0.46-3.587,2.314-2.994,9.558 c0.314,21.558,4.036,42.975,11.054,63.635c0.416,1.454,1.734,2.422,3.166,2.422c0.273,0,0.551-0.035,0.828-0.109 c0.962-0.327,1.637-0.876,2.006-1.63c0.784-1.6,0.041-3.754-0.615-5.655C123.351,337.865,123.125,337.211,122.98,336.588z M255.893,208.603c1.031-0.424,1.683-1.304,1.832-2.479l0.002-0.024c0.035-0.448,0.167-1.065,0.571-1.443 c3.731-3.081,10.213-3.286,14.484-0.436c1.546,0.839,2.605,2.319,3.63,3.751c1.002,1.4,2.038,2.848,3.544,3.746l0.128,0.076 l0.149-0.006c1.957-0.083,3.211-0.655,3.728-1.7c0.592-1.195,0.161-2.847-1.279-4.91c-2.874-4.118-9.671-9.294-12.756-9.069 c-4.414-0.801-10.642-0.306-14.669,2.604c-2.267,1.639-3.603,3.829-3.969,6.506c-0.175,1.177,0.217,2.207,1.102,2.899 C253.354,208.872,254.763,209.069,255.893,208.603z M57.736,224.115c1.02-0.218,1.983-0.424,2.889-0.479l0.049-0.005 c3.345-0.536,6.722-1.187,9.989-1.816c4.885-0.941,9.937-1.914,14.957-2.518c3.406-0.413,6.814-0.8,10.223-1.188 c1.846-0.209,3.691-0.419,5.533-0.632c0.793-0.087,1.514-0.513,2.03-1.198c0.556-0.738,0.799-1.697,0.639-2.614 c-0.952-3.395-4.359-2.745-7.099-2.224c-1.101,0.21-2.143,0.41-3.045,0.369l-0.783,0.085c-4.651,0.508-9.46,1.033-14.176,1.775 c-2.771,0.49-5.538,1.016-8.305,1.542c-5.407,1.028-10.998,2.091-16.536,2.854c-1.642-0.302-3.314,0.46-4.084,1.887 c-0.684,1.267-0.435,2.675,0.664,3.768l0.08,0.064c0.998,0.649,2.079,0.872,3.195,0.872 C55.194,224.658,56.476,224.384,57.736,224.115z M106.754,243.369c-0.823-0.769-1.899-0.997-3.031-0.648 c-4.188,1.117-8.428,2.316-12.528,3.476c-6.858,1.939-13.95,3.945-21.011,5.628c-3.723,1.018-7.13,2.014-10.451,3.057 c-0.527,0.209-1.193,0.382-1.898,0.564c-2.458,0.637-5.824,1.51-4.989,5.029c0.699,1.608,1.893,2.154,3.282,2.154 c1.644,0,3.562-0.766,5.254-1.441c1.371-0.548,2.666-1.065,3.648-1.156l0.104-0.021c3.276-1.034,6.669-1.866,9.95-2.672 c2.419-0.593,4.92-1.206,7.381-1.903c4.407-1.424,8.961-2.632,13.366-3.8c3.217-0.853,6.544-1.735,9.793-2.696 c1.137-0.332,1.905-1.11,2.161-2.191C108.065,245.563,107.651,244.206,106.754,243.369z M102.398,273.091 c-0.844-0.17-1.667-0.007-2.321,0.454l-0.005,0.004c-8.472,6.163-17.532,11.771-26.294,17.192l-0.6,0.372 c-1.516,0.993-2.984,2.092-4.403,3.154c-0.96,0.719-1.92,1.438-2.9,2.129l-0.509,0.354c-1.471,1.013-3.302,2.273-3.567,3.979 c-0.125,0.807,0.121,1.615,0.78,2.456c0.798,0.768,1.603,1.07,2.395,1.07c1.712,0,3.37-1.416,4.79-2.629 c0.879-0.751,1.709-1.46,2.489-1.845l0.088-0.056c3.444-2.717,7.266-5.026,10.962-7.26c2.013-1.216,4.094-2.474,6.167-3.842 c0.735-0.7,2.561-1.811,4.674-3.096c4.652-2.83,10.442-6.352,10.905-9.211c0.109-0.674-0.063-1.284-0.468-1.754 C104.114,273.823,103.299,273.272,102.398,273.091z M135.898,237.689c0.384,1.132,1.201,1.873,2.3,2.089 c1.193,0.232,2.529-0.229,3.325-1.15c0.732-0.847,0.919-1.927,0.535-3.014c-0.938-3.27-2.191-6.604-3.403-9.828 c-2.555-6.797-5.196-13.825-5.183-20.895c1.968-3.303,7.035-5.143,11.514-6.769c1.472-0.534,2.876-1.044,4.106-1.581 c-0.026,8.381,0.045,16.962,0.225,26.276c0.336,1.852,0.672,3.704,1.012,5.556c0.196,1.063,0.4,2.118,0.624,3.17l0.076,0.177 c0.836,1.228,1.77,2.319,2.41,3.023c3.129,3.369,7.405,5.301,11.729,5.301l0.133-0.001c27.924-1.331,55.449-8.627,79.599-21.101 l0.182-0.094l0.063-0.194c0.367-1.112,0.715-2.231,1.054-3.375c0.166-0.657,0.326-1.315,0.484-1.974l0.017-0.07l-0.004-0.072 c-0.066-1.317-0.166-2.64-0.308-4.07c-0.118-0.78-0.252-1.551-0.418-2.399l-2.487-6.71c-0.45-1.201-0.958-2.398-1.449-3.556 c-0.249-0.587-0.497-1.174-0.74-1.764c-1.101-2.665-2.361-5.309-3.58-7.865l-0.634-1.331c-0.814-1.562-1.636-3.123-2.512-4.718 c-1.63-2.306-3.136-4.865-4.592-7.339c-0.934-1.586-1.898-3.226-2.9-4.807l-1.032-1.585c-3.428-5.119-6.721-8.342-10.729-10.476 c-10.3-4.049-21.258-1.384-31.856,1.193c-3.545,0.862-7.212,1.754-10.719,2.343c-1.73,0.323-3.142,0.604-4.403,0.879 c-0.415-0.729-1.085-1.316-1.889-1.642c-0.912-0.369-1.901-0.366-2.816,0.024c-1.926,0.979-3.186,2.781-4.073,4.283 c-7.539,3.341-10.725,9.216-10.329,18.996c-0.038,1.966-0.058,3.933-0.079,5.9l-0.007,0.626c-0.515,0.177-0.959,0.485-1.305,0.904 c-1.179,0.446-2.398,0.862-3.58,1.265c-3.603,1.229-7.328,2.499-10.451,4.781c-6.256,3.172-8.731,10.008-6.041,16.566 C130.103,221.195,133.064,229.704,135.898,237.689z M145.985,44.403c0.966-0.168,1.707-0.72,2.148-1.583 c2.772,3.145,4.931,6.859,7.023,10.459c1.659,2.854,3.374,5.805,5.356,8.425c0.439,0.793,2.795,4.773,5.414,4.706 c0.917-0.014,1.714-0.5,2.378-1.448c0.904,1.342,2.38,2.537,3.892,2.591c0.635,0.016,1.469-0.15,2.22-0.983 c0.762,1.515,1.674,2.955,2.559,4.353c0.878,1.386,1.786,2.819,2.527,4.299c0.483,1.875,1.575,4.072,3.209,4.677 c0.828,0.306,1.693,0.193,2.576-0.336c0.291,0.198,0.63,0.369,1.046,0.531c0.502,0.178,0.947,0.251,1.342,0.251 c0.836,0,1.438-0.328,1.835-0.665c1.298-1.102,1.7-3.399,1.449-5.213c0.57-0.57,0.958-1.349,1.054-2.134 c0.078-0.632,0.073-1.315-0.016-2.081c0.571-0.495,0.92-1.153,1.014-1.92c0.132-1.072-0.248-2.25-0.966-3.08 c-0.254-0.428-0.496-0.952-0.752-1.507c-0.79-1.71-1.765-3.82-3.765-4.325c-1.953-4.829-4.144-9.499-6.261-13.94 c-0.478-0.689-0.861-1.695-1.268-2.761c-0.958-2.514-2.132-5.623-5.247-5.062c-0.731-1.28-1.531-2.631-2.438-3.947 c-0.709-1.026-2.119-1.493-3.388-1.18c-0.534-1.49-1.893-2.689-3.35-2.885c-1.102-0.153-2.085,0.283-2.777,1.197 c-0.642-0.595-1.496-0.939-2.392-0.945c-0.74,0.034-1.477,0.249-2.036,0.711c-0.939-1.549-2.591-2.567-4.084-2.426 c-1.224,0.11-2.152,0.973-2.586,2.386c-0.731,0.093-1.417,0.419-1.922,0.925c-0.047,0.047-0.092,0.095-0.136,0.145 c-0.568-0.213-1.183-0.277-1.8-0.184c-0.811,0.122-1.536,0.528-2.045,1.135c-2.899-1.106-4.403,0.157-5.053,1.035 c-1.623,2.196-1.232,6.382,0.785,8.737C142.515,43.82,144.386,44.678,145.985,44.403z" fill="#A16B9F"/></g><g id="change3_1"><path d="M171.511,193.612c4.267,3.534,10.516,4.726,16.094,3.026c4.851-1.479,8.373-4.896,9.755-9.431 c3.969,2.206,9.01,2.606,13.028,0.993c3.14-1.261,5.389-3.665,6.39-6.808c3.043,1.497,6.663,1.865,10.251,1.038 c3.07-0.633,5.204-2.146,6.341-4.5c2.798-5.793-1.214-15.431-3.841-20.632c-4.582-10.68-16.898-13.487-26.843-12.557 c-6.513-0.044-12.812,1.646-18.886,3.283c-3.476,0.937-7.07,1.905-10.755,2.558c-2.478,0.935-5.355,1.451-8.402,1.998 c-7.287,1.308-14.822,2.661-17.558,9.914c-4.128,6.945-6.778,18.547-3.857,27.286c1.61,4.818,4.658,8.177,9.116,10.002 c1.595,0.437,3.25,0.658,4.921,0.658C163.082,200.437,168.363,197.895,171.511,193.612z M212.188,164.326L212.188,164.326 c0.567-0.497,1.261-0.729,2.183-0.729c0.7,0,1.379,0.312,1.91,0.877c0.594,0.632,0.919,1.491,0.868,2.3 c-0.047,0.793-0.42,1.551-1.025,2.079c-0.567,0.497-1.261,0.728-2.183,0.728c-0.7,0-1.379-0.312-1.91-0.877 c-0.594-0.632-0.919-1.491-0.868-2.3C211.209,165.611,211.582,164.853,212.188,164.326z M201.409,156.222 c0.722,0,1.42,0.313,1.964,0.882c0.584,0.611,0.912,1.452,0.876,2.249c-0.07,1.631-1.426,2.862-3.152,2.862 c-0.722,0-1.42-0.313-1.964-0.882c-0.584-0.611-0.912-1.452-0.876-2.249C198.327,157.453,199.683,156.222,201.409,156.222z M177.292,172.441c0.77,0,1.505,0.315,2.07,0.889c0.573,0.581,0.896,1.363,0.887,2.148c-0.02,1.634-1.385,2.963-3.043,2.963 c-0.77,0-1.505-0.315-2.07-0.889c-0.573-0.581-0.896-1.363-0.887-2.148C174.269,173.77,175.634,172.441,177.292,172.441z M162.314,162.862c0.551-0.569,1.26-0.882,1.998-0.882c1.693,0,3.062,1.274,3.117,2.898c0.025,0.804-0.297,1.613-0.885,2.22 c-0.551,0.569-1.26,0.882-1.998,0.882c-1.693,0-3.062-1.274-3.118-2.898C161.403,164.278,161.726,163.469,162.314,162.862z M157.701,176.988c0.548-0.57,1.253-0.883,1.986-0.883c1.697,0,3.071,1.266,3.129,2.882c0.03,0.804-0.29,1.616-0.878,2.227 c-0.548,0.57-1.253,0.883-1.986,0.883c-1.697,0-3.071-1.266-3.129-2.882C156.793,178.411,157.112,177.599,157.701,176.988z M237.121,200.258c-0.053,1.148-0.716,2.092-1.865,2.659c-10.261,3.626-21.042,6.889-33.013,9.996 c-12.943,3.509-27.525,7.461-42.09,7.461c-0.836,0-1.67-0.013-2.505-0.04c-1.213-0.107-2.125-0.731-2.597-1.759 c-0.512-1.114-0.381-2.524,0.325-3.51c0.644-0.899,1.646-1.328,2.824-1.208c6.067,0.264,12.235-0.639,18.195-1.512l0.514-0.075 c20.229-3.936,40.149-10.14,55.25-15.11c1.1-0.605,2.299-0.602,3.301,0.012C236.509,197.818,237.177,199.057,237.121,200.258z" fill="#FDD4D2"/></g><g id="change4_1"><path d="M140.117,339.407c0.908,3.103-2.046,4.095-4.42,4.893c-0.706,0.237-1.374,0.462-1.902,0.721 c-5.705,2.417-11.99,3.925-19.217,4.613c1.049,3.308,2.19,6.642,3.294,9.869c0.987,2.887,2.009,5.872,2.96,8.825 c0.149,1.291,1.059,3.29,2.021,5.405c1.571,3.452,3.351,7.365,2.495,9.538c-0.251,0.638-0.716,1.102-1.38,1.377 c-0.357,0.151-0.741,0.229-1.138,0.229c-1.213,0-2.336-0.734-2.793-1.828c-2.864-6.675-5.194-13.677-7.448-20.447 c-0.565-1.697-1.129-3.395-1.703-5.089c-0.177-1.015-0.703-2.31-1.258-3.68c-0.511-1.261-1.039-2.562-1.381-3.815 c-2.856,0.084-5.803,0.056-8.966-0.073c-13.312-1.003-26.117-9.036-32.633-20.466c-0.252-0.664-0.651-1.404-1.073-2.187 c-1.03-1.91-2.197-4.075-1.643-5.788c0.251-0.775,0.843-1.394,1.757-1.836c0.808-0.289,1.538-0.271,2.19,0.046 c1.003,0.488,1.797,1.646,2.429,3.542c7.263,17.815,28.037,23.014,44.265,20.298c5.269-0.289,10.87-1.649,17.151-4.162l0.025-0.009 c0.586-0.163,1.249-0.454,1.95-0.762c1.591-0.697,3.394-1.487,4.802-0.936C139.195,337.958,139.738,338.537,140.117,339.407z M173.523,331.445c1.359,0.151,2.727,0.229,4.067,0.229c18.454,0,30.953-14.089,36.498-27.273 c7.023-16.703,5.054-34.834-4.875-45.286c0.603-0.171,1.203-0.35,1.804-0.527c1.411-0.418,2.869-0.85,4.314-1.172 c1.38-0.372,2.762-0.735,4.146-1.098c2.659-0.698,5.405-1.42,8.095-2.201c0.053,8.009,2.156,16.43,5.791,23.157 c6.399,11.765,20.096,19.01,36.589,19.375c2.634,0.573,17.038-1.909,20.004-5.916c0.65-0.879,0.729-1.773,0.244-2.642 c-0.701-1.486-2.45-2.118-3.986-1.441c-14.428,6.562-29.497,5.03-40.306-4.097c-10.856-9.166-14.899-23.868-10.815-39.321 c0.351-1.217,0.822-2.412,1.4-3.554l0.027-0.104c0.016-0.436,0.074-0.862,0.176-1.269c0.354-1.422,0.969-2.664,1.524-3.691 c1.293-2.396,3.129-4.584,4.584-6.222c1.731-1.942,3.781-3.689,6.269-5.341c2-1.336,4.392-2.393,7.313-3.229 c2.677-0.766,5.505-1.058,8.173-1.292c1.602-0.144,3.307-0.12,5.064,0.066l0.266,0.028l0.011-0.267 c0.135-3.291-0.914-6.793-2.879-9.614c-3.175-4.398-8.705-5.773-14.255-6.607c-0.777,0.027-1.753-0.121-2.776-0.279 c-0.935-0.144-1.901-0.292-2.817-0.32c-0.663-0.506-1.494-0.715-2.506-0.612c-1.582,0.399-2.561,2.03-2.181,3.639 c0.673,2.688,0.598,5.034-0.225,6.979c-3.685,9.243-26.305,15.114-35.965,17.622l-0.982,0.256 c-11.705,3.625-25.322,7.463-38.686,7.223c-0.059,0.001-0.117,0.001-0.176,0.001c-4.957,0-11.068-1.955-12.973-6.337 c-0.171-0.242-0.311-0.507-0.415-0.786c-0.866-2.331-1.679-4.722-2.417-7.108l-0.047-0.152l-0.157-0.022 c-1.619-0.229-2.771,0.725-3.266,2.682c-4.486,3.729-7.22,7.176-8.589,10.832c-0.213,0.037-0.417,0.099-0.601,0.182 c-9.922,3.553-14.324,17.224-11.562,26.742c-2.199,0.46-4.935,1.856-7.356,3.093c-1.986,1.015-3.863,1.974-5.028,2.193l-0.098,0.042 c-0.278,0.197-0.653,0.404-1.116,0.615c-0.189-2.864-0.758-5.854-1.309-8.75c-0.656-3.452-1.335-7.021-1.4-10.479l-0.246-3.525 c-0.956-13.654-1.944-27.772-2.05-41.664c0.454-1.377,0.203-2.719-0.692-3.688c-0.79-0.855-1.961-1.24-2.986-0.983 c-1.051,0.266-1.816,1.143-2.155,2.468l-0.008,0.063c0.074,20.677,0.76,44.983,5.28,68.576c-3.17,1.106-6.564,2.455-7.482,4.438 c-0.307,0.662-0.321,1.363-0.039,2.093c0.299,0.684,0.792,1.156,1.464,1.402c2.354,0.857,6.5-1.174,10.158-2.972 c1.945-0.956,3.783-1.858,4.912-2.075l0.097-0.041c0.95-0.668,2.884-1.358,4.932-2.09c2.667-0.952,5.688-2.03,7.552-3.394 c1.246-0.234,2.22-1.241,2.416-2.49c0.816-0.54,1.362-1.372,1.469-2.246c0.069-0.565-0.015-1.407-0.792-2.239 c-1.212-12.761,3.401-16.331,6.158-18.182c1.432,6.7,7.293,12.558,14.108,14.014c0.401,0.033,0.859,0.092,1.347,0.154 c0.683,0.088,1.454,0.187,2.211,0.231c0.489,0.436,1.208,0.787,2.137,1.048l0.104,0.028l0.093-0.056 c6.805-4.132,15.36-5.536,24.755-4.066c14.603,1.021,29.271,10.298,29.058,26.078c1.141,15.138-4.271,29.18-14.476,37.562 c-9.146,7.513-21.174,9.709-33.895,6.178c-0.752-0.136-1.524,0.045-2.176,0.509c-0.673,0.479-1.131,1.206-1.259,2.026 c-0.115,3.841,5,4.144,9.11,4.388C170.892,331.035,172.468,331.129,173.523,331.445z M292.271,430.275 c-4.611-1.271-8.825-3.684-12.512-7.16c-16.694-17.739-25.566-42.506-32.684-62.469l0.954-0.301c0.648-0.205,1.297-0.41,1.95-0.609 c2.864-0.919,5.681-1.934,8.371-3.015c1.102-0.456,1.745-1.541,1.68-2.831c-0.066-1.311-0.852-2.378-2.001-2.722l-0.042-0.013 l-0.044,0.002c-2.854,0.164-5.679,1.264-8.411,2.327c-2.015,0.785-4.099,1.597-6.213,2.037c-5.255,1.77-10.656,3.387-15.881,4.951 c-7.367,2.206-14.986,4.486-22.322,7.231c-4.488,1.686-8.28,2.928-12.25,3.533c-0.061,0.023-0.115,0.054-0.17,0.083l-0.017,0.015 c-1.225,0.373-2.084,1.519-2.137,2.901c2.211,13.391,7.625,26.758,11.977,37.498l0.046,0.115l0.12,0.032 c1.069,0.291,2.017,0.608,2.896,0.971c0.223,0.091,0.443,0.189,0.664,0.287l0.231,0.103c0.817,0.356,1.629,0.728,2.477,1.121 l0.113,0.053c0.669,0.311,1.339,0.622,2.019,0.914c0.346,0.148,0.661,0.358,0.938,0.623l0.064,0.044 c7.06,3.412,10.979,9.819,13.028,14.604c2.074,4.268,8.073,18.976-1.867,29.076c-3.993,4.895-10.161,6.408-15.117,7.625 c-3.304,0.812-5.913,1.452-6.761,2.911c-0.314,0.542-0.37,1.182-0.173,1.865c0.185,1.407,1.38,2.12,3.553,2.12 c5.61,0,16.58-4.876,18.678-6.686c9.93-6.912,14.043-20.518,9.783-32.343c-4.154-13.188-10.694-21.557-19.426-24.868 c-1.409-0.623-2.893-1.158-4.303-1.649c-0.635-0.171-1.23-0.169-1.776,0.002l-1.481-3.606c-3.446-8.613-6.579-18.182-9.312-28.444 c2.887-0.519,5.717-1.591,8.456-2.63c1.496-0.567,3.044-1.153,4.572-1.637c5.58-2.047,11.371-3.758,16.972-5.413 c2.188-0.647,4.376-1.294,6.561-1.962c1.936-0.613,3.869-1.232,5.804-1.852l2.334-0.747c3.586,11.743,21.876,67.202,49.058,73.692 c0.31,0.092,0.613,0.139,0.904,0.139c1.607-0.001,2.627-1.363,2.802-2.709C294.53,432.304,294.071,430.754,292.271,430.275z M185.017,463.769c-0.673-0.105-1.309-0.205-1.838-0.355l-0.009-0.003c-3.775-0.932-7.782-2.053-11.506-3.929 c-0.846-0.771-2.064-1.002-3.114-0.592l-0.061,0.034c-1.438,1.104-2.038,2.227-1.783,3.337c0.827,3.587,10.256,5.955,18.378,7.617 c0.566,0.115,1.025,0.209,1.357,0.283c0.159,0.028,0.322,0.043,0.485,0.043c1.438,0,2.738-1.112,2.959-2.542 C190.232,464.588,187.34,464.134,185.017,463.769z M61.544,122.703c-5.846-7.389-15.322-22.698-13.154-42.266 c5.025-27.589,27.683-47.701,47.212-57.33c2.982-1.115,6.042-2.258,9.104-3.145c0.538-0.156,1.077-0.317,1.615-0.478 c1.118-0.335,2.274-0.681,3.412-0.973l4.84-1.246l4.647-0.979c0.945-0.202,1.902-0.359,2.828-0.511l0.073-0.01 c4.791-0.122,8.764,0.005,10.068,0.186c18.865,0.078,36.413,7.132,50.713,20.396c9.186,7.729,21.309,20.242,20.432,39.499 c0.083,17.92-7.436,35.842-21.17,50.453c-12.461,13.255-28.773,22.583-44.752,25.59c-3.969,0.757-8.034,1.141-12.082,1.141 c-10.088,0-20.287-2.333-30.312-6.933c-1.521-0.7-3.083-1.478-4.641-2.311C80.112,138.475,69.514,132.243,61.544,122.703z M179.891,65.94c-0.176,0.466-0.221,1.088-0.137,1.901c0.057,0.584,0.245,1.195,0.516,1.676c0.262,0.453,0.521,0.847,0.793,1.201 l0.033,0.059c0.21,0.519,0.496,0.988,0.852,1.394c0.566,0.647,1.482,1.462,2.626,1.668c0.175,0.034,0.345,0.056,0.518,0.067 c0.552,0.169,1.035,0.229,1.542,0.246c0.025,0,0.05,0,0.074-0.002c1.33-0.036,2.468-0.645,3.14-1.673 c0.527-0.81,0.781-1.873,0.664-2.772c-0.245-1.938-1.448-3.807-3.14-4.88c-0.028-0.015-0.073-0.042-0.114-0.069l-0.073-0.075 c-0.61-0.97-1.704-1.549-2.925-1.549l-0.107,0.002c-0.832,0.029-1.572,0.08-2.214,0.417v0c-0.558,0.291-0.973,0.605-1.307,0.989 C180.285,64.942,180.099,65.392,179.891,65.94z M149.834,38.353c-0.066,1.662,0.442,3.551,1.429,5.322 c1.033,1.852,2.506,3.696,4.637,5.803c1.679,1.658,3.359,2.997,4.992,3.979c0.172,0.103,0.348,0.207,0.527,0.302 c1.062,0.849,2.082,1.576,3.069,2.188c2.134,1.326,4.994,2.89,8.19,3.214c0.341,0.033,0.65,0.049,0.943,0.049 c1.421,0,2.655-0.338,3.667-1.005c1.202-0.79,2.165-2.343,2.454-3.957c0.296-1.66,0.165-3.166-0.41-4.741 c-0.392-1.081-0.918-2.192-1.659-3.498l-0.203-0.357c-0.806-1.418-1.639-2.886-2.674-4.138c-0.995-1.211-2.044-2.378-3.208-3.566 c-1.06-1.078-2.352-2.094-3.84-3.021c-2.095-1.304-4.187-2.211-6.215-2.696c-1.26-0.3-2.914-0.646-4.528-0.646 c-1.976,0-3.517,0.504-4.711,1.541c-0.718,0.622-1.59,1.477-1.971,2.584C150.028,36.575,149.868,37.44,149.834,38.353z M177.456,136.231c0.881,4.225,1.499,8.57,2.098,12.772c0.522,3.671,1.062,7.467,1.777,11.178c0.029,0.135,0.063,0.262,0.094,0.336 c0.2,1.473,1.445,2.626,2.834,2.626c0.487,0,0.967-0.104,1.393-0.303c0.358,0.147,0.757,0.225,1.158,0.225 c0.751,0,1.453-0.272,1.98-0.771c1.848-1.825,1.229-4.198,0.632-6.493c-0.284-1.091-0.552-2.122-0.571-3.122 c-0.164-1.184-0.316-2.376-0.469-3.572c-0.738-5.793-1.502-11.784-3.751-17.289c-0.942-1.492-2.985-1.978-5.486-1.295 c-1.298,0.43-2.05,1.621-1.924,3.042C177.017,134.382,177.098,135.302,177.456,136.231z M28.372,82.152l-0.075-0.013 c-0.021,0-0.042,0-0.063,0c-1.836,0-2.77,1.443-2.861,2.798c-0.092,1.357,0.634,2.913,2.438,3.165 c10.234,8.692,17.062,24.504,18.268,42.296c-0.054,3.825-0.596,7.271-1.453,11.591c-0.142,0.713,0.031,1.459,0.488,2.102 c0.497,0.698,1.272,1.181,2.057,1.289c0.178,0.038,0.352,0.056,0.522,0.056c0.519,0,0.998-0.174,1.428-0.521 c2.787-2.246,2.853-11.423,2.881-15.341c0.002-0.387,0.005-0.716,0.009-0.993C51.385,114.79,41.935,86.686,28.372,82.152z M200.039,141.092l0.033,0.051c0.774,0.924,1.687,1.391,2.715,1.391c0.077,0,0.154-0.002,0.232-0.008 c4.158-0.277,9.093-8.073,10.95-11.008l0.164-0.26c5.502-9.732,9.164-20.407,10.884-31.723c0.129-0.76-0.059-1.538-0.529-2.188 c-0.479-0.662-1.203-1.11-1.995-1.23c-3.352-0.412-3.954,4.024-4.484,7.931c-0.259,1.901-0.503,3.697-1.044,4.77 c-2.617,8.433-5.953,18.057-12.465,25.569c-0.479,0.679-1.31,1.259-2.112,1.82C200.733,137.364,198.857,138.676,200.039,141.092z M71.817,175.151c8.157-4.54,18.009-3.924,26.562-3c1.152,0.319,2.458,0.162,3.335-0.402c0.658-0.422,1.072-1.058,1.2-1.861 c0.066-1.038-0.185-1.877-0.748-2.497c-1.247-1.371-3.81-1.45-6.071-1.521c-1.118-0.035-2.174-0.068-3.008-0.253 c-10.212-0.651-24.045,0.723-31.963,10.986c-0.669,0.956-1.415,1.899-2.204,2.897c-2.458,3.109-5,6.324-5.353,10.145l-0.003,0.037 l0.008,0.036c0.159,0.773,0.623,1.443,1.305,1.887c0.5,0.325,1.08,0.496,1.651,0.496c0.198,0,0.396-0.021,0.587-0.062 c1.468-0.26,1.986-1.424,2.487-2.551c0.167-0.377,0.341-0.767,0.546-1.102C63.046,183.656,66.577,178.343,71.817,175.151z" fill="#3E4677"/></g><g id="change5_1"><path d="M190.243,123.067c-0.436,4.035-2.359,8.839-6.45,10.265c-0.87,0.894-1.836,1.397-2.874,1.496 c-0.462,0.254-0.979,0.384-1.496,0.384c-0.392,0-0.782-0.074-1.147-0.224c-5.971-3.797-8.372-12.172-7.677-18.493 c1.208-9.224,3.801-15.013,6.769-15.114c2.694-0.079,5.123,4.497,6.861,12.932c1.639-0.983,2.822-0.699,3.541-0.267 C189.706,115.21,190.699,118.836,190.243,123.067z M295.472,142.977c-0.511-0.889-1.392-1.378-2.48-1.378c-0.005,0-0.011,0-0.016,0 l-0.037,0.003c-0.363,0.057-0.845,0.077-1.46,0.055c0.136-3.529-0.274-5.658-1.288-6.686c-0.482-0.49-1.111-0.725-1.832-0.704 c-1.628,0-3.004,1.374-3.004,3c0,1.163-0.017,2.413-0.051,3.918c-1.985-0.084-4.338-0.005-5.586,1.129 c-0.548,0.499-0.845,1.167-0.882,2c0.019,2.768,3.289,3.197,6.242,3.224c-0.056,1.179-0.116,2.359-0.181,3.543 c-0.025,1.084,0.444,1.967,1.32,2.486c0.498,0.294,1.083,0.442,1.669,0.442c0.578,0,1.156-0.144,1.652-0.431 c0.892-0.516,1.374-1.402,1.356-2.523c-0.106-0.83,0-2.24,0.127-3.646c0.841,0.013,1.45,0.072,1.951,0.19 c1.101,0.007,1.973-0.462,2.489-1.342C296.035,145.281,296.039,143.963,295.472,142.977z M290.438,118.242 c0.592-3.019-3.977-6.449-12.229-9.189c-0.072-3.994-1.115-18.14-5.201-21.071c-0.777-0.558-1.629-0.692-2.571-0.379 c-4.168,2.361-4.774,8.315-5.31,13.568c-0.242,2.377-0.472,4.626-0.991,6.445c-9.644-0.831-15.961,0.5-16.511,3.476 c-0.565,3.063,4.945,6.639,14.393,9.345c0.127,2.688,0.117,5.431,0.108,8.085c-0.003,0.892-0.006,1.783-0.004,2.673l0.001,0.583 c0,2.706,0.001,5.504,1.245,7.998c1.129,1.406,2.245,2.115,3.329,2.115c0.236,0,0.471-0.034,0.703-0.101 c4.862-1.405,6.997-17.057,7.266-19.182C283.614,123.198,289.801,121.488,290.438,118.242z M23.792,211.775 c-1.678-0.833-3.365-0.764-4.75,0.195c-1.458,1.011-2.315,2.881-2.131,4.656c0.175,1.688,1.218,3.018,2.934,3.742 c0.626,0.276,1.258,0.413,1.878,0.413c0.912,0,1.795-0.296,2.59-0.882c1.482-1.094,2.342-3.002,2.139-4.748 C26.276,213.634,25.331,212.436,23.792,211.775z M26.263,180.003c-1.087-0.776-2.224-1.928-3.426-3.144 c-2.991-3.029-6.383-6.458-10.229-5.15l-0.087,0.051c-3.53,3.188-1.078,7.558,1.084,11.413c0.756,1.348,1.472,2.624,1.891,3.768 c-6.822,5.096-7.406,8.03-6.687,9.596c1.149,2.503,6.531,3.075,13.725,1.463c1.325,0.787,2.373,2.041,3.387,3.253 c1.315,1.574,2.675,3.201,4.666,3.855l0.046,0.015l0.048-0.003c1.458-0.095,2.487-0.571,3.06-1.414 c1.199-1.763,0.217-4.81-0.649-7.499c-0.429-1.331-0.835-2.591-0.935-3.553c6.235-4.927,9.299-9.857,7.808-12.579 C38.552,177.498,33.562,177.471,26.263,180.003z" fill="#FFA953"/></g></svg>